<svg width="1080" height="1080" viewBox="0 0 1080 1080" fill="none" xmlns="http://www.w3.org/2000/svg">
<g clip-path="url(#clip0)">
<path d="M539.783 840C697.064 840 824.566 833.48 824.566 825.437C824.566 817.394 697.064 810.874 539.783 810.874C382.502 810.874 255 817.394 255 825.437C255 833.48 382.502 840 539.783 840Z" fill="#E6E6E6"/>
<path d="M780.564 612.647V616.172C780.564 616.172 786.909 638.73 779.154 638.73C771.4 638.73 768.58 616.877 768.58 616.877V612.647H780.564Z" fill="#FFB8B8"/>
<path d="M639.575 532.284L640.985 526.644C640.985 526.644 648.739 509.02 655.084 512.545C661.428 516.07 652.264 529.464 652.264 529.464L650.854 532.989L639.575 532.284Z" fill="#FFB8B8"/>
<path d="M684.692 784.654L686.102 796.638L699.495 798.753V783.244L684.692 784.654Z" fill="#FFB8B8"/>
<path d="M758.711 781.129L760.12 798.753L775.63 796.638L772.809 779.719L758.711 781.129Z" fill="#FFB8B8"/>
<path d="M678.347 647.19L675.528 647.894L683.281 722.618V789.589L703.02 786.064L712.889 668.338L743.202 726.143L758.005 784.654L781.269 780.424L762.235 707.11L749.546 637.32L678.347 647.19Z" fill="#2F2E41"/>
<path d="M692.446 792.408C692.446 792.408 686.101 788.179 683.986 790.998C681.872 793.818 672.707 807.917 672.707 807.917C672.707 807.917 650.149 831.18 672.707 830.475C672.707 830.475 687.511 830.475 690.331 822.016C690.331 822.016 691.036 817.786 695.971 817.786C700.905 817.786 706.545 812.852 706.545 810.032C706.545 807.212 701.61 792.974 699.495 795.159C697.38 797.343 692.446 792.408 692.446 792.408Z" fill="#2F2E41"/>
<path d="M768.129 792.408C768.129 792.408 774.473 788.179 776.588 790.998C778.703 793.818 787.867 807.917 787.867 807.917C787.867 807.917 810.426 831.18 787.867 830.475C787.867 830.475 773.063 830.475 770.244 822.016C770.244 822.016 769.539 817.786 764.604 817.786C759.669 817.786 754.03 812.852 754.03 810.032C754.03 807.212 758.965 792.974 761.079 795.159C763.194 797.343 768.129 792.408 768.129 792.408Z" fill="#2F2E41"/>
<path d="M680.109 528.686C690.386 528.686 698.717 520.355 698.717 510.078C698.717 499.801 690.386 491.47 680.109 491.47C669.832 491.47 661.501 499.801 661.501 510.078C661.501 520.355 669.832 528.686 680.109 528.686Z" fill="#FFB8B8"/>
<path d="M678.7 524.882L688.569 536.865L706.192 522.061L693.504 512.193L678.7 524.882Z" fill="#FFB8B8"/>
<path d="M683.987 537.218L684.563 532.001L704.352 520.631L731.236 518.08C732.067 518.001 732.905 518.087 733.702 518.332C734.5 518.577 735.241 518.977 735.884 519.509C736.527 520.04 737.059 520.694 737.449 521.431C737.84 522.168 738.081 522.975 738.159 523.806L748.137 629.566L751.661 638.73C751.661 638.73 689.626 673.978 675.527 647.895L686.101 592.909L664.248 551.317L683.987 537.218Z" fill="#D0CDE1"/>
<path d="M731.923 519.595C732.354 519.523 732.775 519.403 733.179 519.237C734.471 518.771 735.879 518.736 737.194 519.136C738.508 519.536 739.657 520.35 740.471 521.457L772.105 564.711L784.089 614.762H767.17L755.891 580.925L737.562 556.957L731.923 519.595Z" fill="#D0CDE1"/>
<path d="M669.888 549.907L664.248 551.317L647.329 566.121L652.969 532.284L638.87 529.463L627.944 586.212L635.698 593.966L679.757 575.99L669.888 549.907Z" fill="#D0CDE1"/>
<path d="M687.52 510.017C687.52 510.017 679.876 498.792 675.501 502.488C671.126 506.184 658.862 513.433 656.277 507.695C653.693 501.957 663.625 491.444 671.121 488.931C678.617 486.418 691.779 483.078 695.908 494.16C698.393 501.191 699.222 508.701 698.33 516.105L687.52 510.017Z" fill="#2F2E41"/>
<path d="M688.292 512.175C689.342 511.794 689.636 509.952 688.949 508.063C688.262 506.173 686.854 504.95 685.804 505.332C684.755 505.714 684.46 507.555 685.147 509.445C685.834 511.334 687.242 512.557 688.292 512.175Z" fill="#FFB8B8"/>
<path d="M601.27 379.922H598.035V291.295C598.035 284.559 596.708 277.889 594.131 271.665C591.553 265.442 587.774 259.787 583.011 255.024C578.248 250.261 572.593 246.482 566.37 243.905C560.147 241.327 553.476 240 546.74 240H358.972C352.236 240 345.566 241.327 339.343 243.905C333.119 246.482 327.464 250.261 322.701 255.024C317.938 259.787 314.16 265.442 311.582 271.665C309.004 277.889 307.677 284.559 307.677 291.295V777.509C307.677 784.245 309.004 790.915 311.582 797.139C314.16 803.362 317.938 809.017 322.701 813.78C327.464 818.543 333.119 822.321 339.343 824.899C345.566 827.477 352.236 828.804 358.972 828.804H546.74C553.476 828.804 560.147 827.477 566.37 824.899C572.593 822.321 578.248 818.543 583.011 813.78C587.774 809.017 591.553 803.362 594.131 797.139C596.708 790.915 598.035 784.245 598.035 777.509V443.008H601.27V379.922Z" fill="#3F3D56"/>
<path d="M548.81 253.345H524.3C525.427 256.109 525.857 259.107 525.553 262.076C525.248 265.044 524.218 267.893 522.554 270.37C520.889 272.847 518.641 274.877 516.007 276.28C513.373 277.683 510.434 278.418 507.45 278.418H399.88C396.896 278.418 393.957 277.683 391.323 276.28C388.689 274.877 386.441 272.847 384.776 270.37C383.112 267.893 382.082 265.044 381.777 262.076C381.473 259.107 381.903 256.109 383.03 253.345H360.138C355.107 253.345 350.126 254.336 345.479 256.261C340.831 258.186 336.608 261.008 333.051 264.565C329.494 268.122 326.672 272.345 324.747 276.992C322.822 281.64 321.831 286.621 321.831 291.651V777.152C321.831 782.183 322.822 787.164 324.747 791.811C326.672 796.459 329.494 800.682 333.051 804.239C336.608 807.796 340.831 810.618 345.479 812.543C350.126 814.468 355.107 815.459 360.138 815.459H548.81C553.84 815.459 558.822 814.468 563.469 812.543C568.117 810.618 572.34 807.796 575.897 804.239C579.454 800.682 582.275 796.459 584.201 791.811C586.126 787.164 587.116 782.183 587.116 777.152V291.652C587.116 286.621 586.126 281.64 584.201 276.992C582.275 272.345 579.454 268.122 575.897 264.565C572.34 261.008 568.117 258.186 563.469 256.261C558.822 254.336 553.84 253.345 548.81 253.345V253.345Z" fill="white"/>
<path d="M480.705 383.77H413.829V389.981H480.705V383.77Z" fill="#6C63FF"/>
<path d="M530.388 405.254H413.829V411.464H530.388V405.254Z" fill="#E6E6E6"/>
<path d="M530.273 426.738H413.829V432.948H530.273V426.738Z" fill="#E6E6E6"/>
<path d="M399.97 383.863H350.288V433.545H399.97V383.863Z" fill="#6C63FF"/>
<path d="M480.705 514.188H413.829V520.398H480.705V514.188Z" fill="#6C63FF"/>
<path d="M530.388 535.671H413.829V541.882H530.388V535.671Z" fill="#E6E6E6"/>
<path d="M530.273 557.155H413.829V563.365H530.273V557.155Z" fill="#E6E6E6"/>
<path d="M399.97 514.28H350.288V563.963H399.97V514.28Z" fill="#6C63FF"/>
<path d="M480.705 644.605H413.829V650.815H480.705V644.605Z" fill="#6C63FF"/>
<path d="M530.388 666.089H413.829V672.299H530.388V666.089Z" fill="#E6E6E6"/>
<path d="M530.273 687.572H413.829V693.782H530.273V687.572Z" fill="#E6E6E6"/>
<path d="M399.97 644.697H350.288V694.38H399.97V644.697Z" fill="#6C63FF"/>
</g>
<defs>
<clipPath id="clip0">
<rect x="255" y="240" width="569.566" height="600" fill="white"/>
</clipPath>
</defs>
</svg>
