<svg width="1080" height="1080" viewBox="0 0 1080 1080" fill="none" xmlns="http://www.w3.org/2000/svg">
<g clip-path="url(#clip0)">
<path d="M526.905 400.137V490.709H699.623" fill="#F2F2F2"/>
<path d="M724.899 491.411H526.203V312.374H527.607V490.007H724.899V491.411Z" fill="#3F3D56"/>
<path d="M529.072 491.614L527.816 490.986C536.453 473.706 554.467 461.448 573.71 459.759C577.03 459.467 580.508 459.438 583.872 459.411C593.168 459.334 602.78 459.254 609.789 453.57C614.977 449.362 617.486 443.173 620.141 436.621C621.44 433.205 622.961 429.877 624.694 426.659C628.048 420.924 632.75 416.094 638.393 412.588C644.036 409.082 650.449 407.005 657.076 406.537C657.589 406.508 658.112 406.489 658.642 406.484C659.775 404.97 661.018 403.541 662.361 402.21C669.166 395.481 677.878 391.07 686.304 386.804L688.299 385.793C697.215 381.256 706.449 376.168 712.754 368.285C716.696 363.239 719.325 357.295 720.406 350.983C721.487 344.672 720.985 338.191 718.947 332.121L720.273 331.659C722.387 337.953 722.907 344.674 721.786 351.219C720.665 357.764 717.939 363.929 713.851 369.162C707.37 377.264 697.989 382.438 688.935 387.044L686.938 388.057C678.609 392.274 669.996 396.634 663.349 403.209C662.299 404.249 661.312 405.351 660.394 406.508C668.329 406.82 677.56 409.883 682.747 417.817C684.204 420.135 685.161 422.732 685.558 425.441C685.955 428.15 685.782 430.912 685.052 433.551C683.8 438.156 681.013 441.735 677.203 443.628C673.18 445.627 668.426 445.569 663.816 443.464C661.13 442.246 658.742 440.458 656.817 438.224C654.891 435.99 653.476 433.364 652.668 430.528C650.545 422.321 653.34 414.201 657.619 407.916C657.465 407.922 657.311 407.93 657.157 407.94C650.763 408.391 644.576 410.394 639.132 413.777C633.687 417.16 629.15 421.82 625.914 427.352C624.213 430.518 622.72 433.79 621.443 437.149C618.837 443.578 616.143 450.225 610.674 454.66C603.284 460.654 593.421 460.736 583.884 460.815C580.548 460.843 577.097 460.871 573.834 461.158C555.065 462.806 537.495 474.761 529.072 491.614ZM659.353 407.885C654.949 413.988 651.927 422.059 654.027 430.176C654.781 432.811 656.099 435.25 657.89 437.324C659.681 439.398 661.902 441.058 664.399 442.187C668.617 444.112 672.942 444.178 676.578 442.371C680.024 440.658 682.552 437.395 683.697 433.183C684.361 430.734 684.515 428.175 684.15 425.663C683.784 423.152 682.907 420.743 681.572 418.585C677.288 412.033 668.727 407.962 659.353 407.885Z" fill="#3F3D56"/>
<path d="M623.796 442.264C630.775 442.264 636.434 436.606 636.434 429.626C636.434 422.646 630.775 416.988 623.796 416.988C616.816 416.988 611.158 422.646 611.158 429.626C611.158 436.606 616.816 442.264 623.796 442.264Z" fill="#6C63FF"/>
<path d="M491.99 659.181H188V514.581H491.99V659.181ZM189.404 657.777H490.585V515.985H189.404V657.777Z" fill="#3F3D56"/>
<path d="M881.468 768.041H414.568V769.445H881.468V768.041Z" fill="#3F3D56"/>
<path d="M772.397 457.238L766.623 486.108C766.623 486.108 759.199 502.605 762.499 514.153L764.973 519.102L780.646 505.08L786.419 466.312L772.397 457.238Z" fill="#A0616A"/>
<path d="M740.228 724.489L731.155 759.133L741.878 764.082L751.776 755.833L757.55 729.438L740.228 724.489Z" fill="#A0616A"/>
<path d="M861.893 710.879L866.429 760.782H889.525L878.39 705.93L861.893 710.879Z" fill="#A0616A"/>
<path d="M826.012 527.35L830.685 504.503L776.521 491.882L764.973 510.029C764.973 510.029 745.177 541.373 740.228 637.055C735.279 732.738 733.629 731.913 733.629 731.913L774.047 736.037L794.668 602.412L845.808 724.489L884.576 713.766L835.91 566.943C835.91 566.943 839.21 545.497 826.012 527.35Z" fill="#2F2E41"/>
<path d="M742.703 751.709L736.929 757.483L733.629 754.184L735.43 742.063L726.206 747.585C726.206 747.585 709.709 745.11 711.358 762.432C711.358 762.432 708.884 768.206 722.906 774.805C736.929 781.404 744.352 785.528 744.352 785.528C744.352 785.528 757.55 784.703 757.55 780.579C757.55 776.455 753.391 748.45 753.391 748.45L742.703 751.709Z" fill="#2F2E41"/>
<path d="M877.153 751.709L871.379 757.483L868.079 754.184L864.618 742.063L860.656 747.585C860.656 747.585 844.159 745.11 845.809 762.432C845.809 762.432 843.334 768.206 857.356 774.805C871.379 781.404 878.802 785.528 878.802 785.528C878.802 785.528 892 784.703 892 780.579C892 776.455 887.841 748.45 887.841 748.45L877.153 751.709Z" fill="#2F2E41"/>
<path d="M811.99 409.397C825.201 409.397 835.91 398.688 835.91 385.477C835.91 372.266 825.201 361.556 811.99 361.556C798.779 361.556 788.069 372.266 788.069 385.477C788.069 398.688 798.779 409.397 811.99 409.397Z" fill="#A0616A"/>
<path d="M804.566 403.623L806.215 431.668H837.56L828.487 393.725L804.566 403.623Z" fill="#A0616A"/>
<path d="M786.419 420.12L811.99 418.471L839.21 420.12C839.21 420.12 862.305 432.493 849.933 466.312C837.56 500.13 828.487 510.854 828.487 510.854L802.092 499.306H793.843C793.843 499.306 791.369 496.831 790.544 496.831C789.719 496.831 774.047 499.306 774.047 499.306C774.047 499.306 769.922 481.984 775.696 480.334C781.47 478.684 784.77 469.611 784.77 469.611L786.419 420.12Z" fill="#D0CDE1"/>
<path d="M791.369 422.595L786.42 420.12L769.098 460.538L788.069 472.911L791.369 422.595Z" fill="#D0CDE1"/>
<path d="M777.759 383.415C777.759 383.415 766.211 353.72 789.04 350.878C789.04 350.878 817.823 333.197 836.323 362.793L850.922 398.831L846.045 397.861L845.426 402.717L839.202 406.535L834.521 401.697L835.295 409.103L781.671 431.876C781.671 431.876 801.888 409.488 794.089 383.093L790.923 389.554L777.759 383.415Z" fill="#2F2E41"/>
<path d="M444.268 750.777C441.269 761.864 430.996 768.73 430.996 768.73C430.996 768.73 425.586 757.621 428.585 746.535C431.584 735.448 441.857 728.582 441.857 728.582C441.857 728.582 447.267 739.691 444.268 750.777Z" fill="#6C63FF"/>
<path d="M416.985 750.777C419.984 761.864 430.256 768.73 430.256 768.73C430.256 768.73 435.667 757.621 432.667 746.535C429.668 735.448 419.396 728.582 419.396 728.582C419.396 728.582 413.985 739.691 416.985 750.777Z" fill="#6C63FF"/>
<path d="M421.392 748.395C429.621 756.406 430.626 768.721 430.626 768.721C430.626 768.721 418.289 768.047 410.059 760.036C401.829 752.025 400.824 739.71 400.824 739.71C400.824 739.71 413.162 740.383 421.392 748.395Z" fill="#3F3D56"/>
<path d="M439.861 748.395C431.632 756.406 430.626 768.721 430.626 768.721C430.626 768.721 442.964 768.047 451.194 760.036C459.423 752.025 460.429 739.71 460.429 739.71C460.429 739.71 448.091 740.383 439.861 748.395Z" fill="#3F3D56"/>
<path d="M319.172 353.573C322.224 343.575 327.856 334.557 335.5 327.426C343.145 320.296 352.533 315.305 362.719 312.955C355.589 305.308 346.571 299.672 336.572 296.614C326.573 293.557 315.946 293.186 305.758 295.538C295.57 297.891 286.181 302.884 278.535 310.016C270.888 317.148 265.255 326.167 262.199 336.166C259.144 346.166 258.775 356.794 261.13 366.981C263.485 377.168 268.48 386.556 275.613 394.201C282.746 401.846 291.767 407.478 301.767 410.531C311.767 413.584 322.395 413.951 332.582 411.594C325.448 403.952 320.453 394.567 318.099 384.381C315.744 374.196 316.115 363.57 319.172 353.573V353.573Z" fill="#6C63FF"/>
<path d="M402.392 316.725C392.395 313.658 381.764 313.292 371.579 315.662C378.711 323.305 383.705 332.691 386.059 342.876C388.413 353.061 388.044 363.686 384.99 373.683C381.935 383.68 376.303 392.697 368.659 399.827C361.014 406.957 351.628 411.949 341.442 414.301C347.673 420.981 355.357 426.139 363.9 429.375C372.443 432.61 381.616 433.837 390.709 432.96C399.802 432.084 408.572 429.127 416.339 424.319C424.107 419.51 430.664 412.98 435.504 405.232C440.343 397.484 443.336 388.726 444.249 379.637C445.163 370.547 443.973 361.37 440.773 352.814C437.572 344.257 432.445 336.552 425.79 330.294C419.135 324.037 411.129 319.394 402.392 316.725V316.725Z" fill="#3F3D56"/>
<path d="M379.927 372.136C388.249 344.898 382.245 318.921 366.516 314.115C350.788 309.31 331.291 327.495 322.969 354.733C314.646 381.972 320.65 407.948 336.379 412.754C352.108 417.56 371.605 399.374 379.927 372.136Z" fill="#D0CDE1"/>
<path d="M721.388 348.182C728.368 348.182 734.026 342.524 734.026 335.544C734.026 328.564 728.368 322.906 721.388 322.906C714.409 322.906 708.75 328.564 708.75 335.544C708.75 342.524 714.409 348.182 721.388 348.182Z" fill="#6C63FF"/>
<path d="M686.985 400.138C693.965 400.138 699.623 394.479 699.623 387.5C699.623 380.52 693.965 374.862 686.985 374.862C680.005 374.862 674.347 380.52 674.347 387.5C674.347 394.479 680.005 400.138 686.985 400.138Z" fill="#6C63FF"/>
<path d="M425.151 547.33H194.107V649.385H425.151V547.33Z" fill="#F2F2F2"/>
<path d="M425.57 540.472H205.583V559.991H425.57V540.472Z" fill="#6C63FF"/>
<path d="M411.59 547.594H219.563V552.869H411.59V547.594Z" fill="#3F3D56"/>
<path d="M315.313 557.354C319.392 557.354 322.699 554.047 322.699 549.968C322.699 545.889 319.392 542.582 315.313 542.582C311.234 542.582 307.927 545.889 307.927 549.968C307.927 554.047 311.234 557.354 315.313 557.354Z" fill="#3F3D56"/>
<path d="M372.815 575.29H257.81V630.155H372.815V575.29Z" fill="#6C63FF"/>
<path opacity="0.15" d="M315.313 613.273C321.14 613.273 325.864 608.55 325.864 602.722C325.864 596.895 321.14 592.172 315.313 592.172C309.486 592.172 304.762 596.895 304.762 602.722C304.762 608.55 309.486 613.273 315.313 613.273Z" fill="black"/>
<path opacity="0.3" d="M352.241 613.273C358.068 613.273 362.792 608.55 362.792 602.722C362.792 596.895 358.068 592.172 352.241 592.172C346.414 592.172 341.69 596.895 341.69 602.722C341.69 608.55 346.414 613.273 352.241 613.273Z" fill="white"/>
<path opacity="0.3" d="M278.385 613.273C284.212 613.273 288.936 608.55 288.936 602.722C288.936 596.895 284.212 592.172 278.385 592.172C272.558 592.172 267.834 596.895 267.834 602.722C267.834 608.55 272.558 613.273 278.385 613.273Z" fill="black"/>
</g>
<defs>
<clipPath id="clip0">
<rect x="188" y="294" width="704" height="491.528" fill="white"/>
</clipPath>
</defs>
</svg>
