<svg width="1080" height="1080" viewBox="0 0 1080 1080" fill="none" xmlns="http://www.w3.org/2000/svg">
<g clip-path="url(#clip0)">
<path d="M540.738 736.762C493.309 736.762 447.347 720.317 410.684 690.228C374.021 660.139 348.925 618.269 339.672 571.751C330.419 525.234 337.582 476.947 359.94 435.118C382.298 393.289 418.468 360.507 462.286 342.357C506.105 324.207 554.862 321.811 600.248 335.579C645.635 349.347 684.844 378.427 711.194 417.862C737.544 457.298 749.405 504.651 744.756 551.851C740.107 599.052 719.236 643.18 685.699 676.718C666.706 695.814 644.115 710.953 619.233 721.26C594.35 731.567 567.67 736.836 540.738 736.762V736.762ZM540.738 328.327C428.567 328.327 337.308 419.586 337.308 531.757C337.308 643.928 428.567 735.186 540.738 735.186C652.909 735.186 744.167 643.928 744.167 531.757C744.167 419.586 652.909 328.327 540.738 328.327V328.327Z" fill="#CCCCCC"/>
<path d="M616.858 767.506V560.974H463.142V767.506H616.858Z" fill="#2F2E41"/>
<path d="M643.266 554.668H436.734V636.65H643.266V554.668Z" fill="#3F3D56"/>
<path d="M643.266 646.109H436.734V728.091H643.266V646.109Z" fill="#3F3D56"/>
<path d="M643.266 737.551H436.734V819.533H643.266V737.551Z" fill="#3F3D56"/>
<path d="M643.266 589.429H436.734V602.041H643.266V589.429Z" fill="#6C63FF"/>
<path d="M643.266 680.87H436.734V693.483H643.266V680.87Z" fill="#6C63FF"/>
<path d="M643.266 772.311H436.734V784.924H643.266V772.311Z" fill="#6C63FF"/>
<path d="M603.063 571.222C605.675 571.222 607.793 569.105 607.793 566.492C607.793 563.88 605.675 561.763 603.063 561.763C600.451 561.763 598.333 563.88 598.333 566.492C598.333 569.105 600.451 571.222 603.063 571.222Z" fill="#6C63FF"/>
<path d="M619.617 571.222C622.229 571.222 624.347 569.105 624.347 566.492C624.347 563.88 622.229 561.763 619.617 561.763C617.005 561.763 614.887 563.88 614.887 566.492C614.887 569.105 617.005 571.222 619.617 571.222Z" fill="#6C63FF"/>
<path d="M636.171 571.222C638.783 571.222 640.901 569.105 640.901 566.492C640.901 563.88 638.783 561.763 636.171 561.763C633.559 561.763 631.441 563.88 631.441 566.492C631.441 569.105 633.559 571.222 636.171 571.222Z" fill="#6C63FF"/>
<path d="M603.063 661.087C605.675 661.087 607.793 658.969 607.793 656.357C607.793 653.745 605.675 651.627 603.063 651.627C600.451 651.627 598.333 653.745 598.333 656.357C598.333 658.969 600.451 661.087 603.063 661.087Z" fill="#6C63FF"/>
<path d="M619.617 661.087C622.229 661.087 624.347 658.969 624.347 656.357C624.347 653.745 622.229 651.627 619.617 651.627C617.005 651.627 614.887 653.745 614.887 656.357C614.887 658.969 617.005 661.087 619.617 661.087Z" fill="#6C63FF"/>
<path d="M636.171 661.087C638.783 661.087 640.901 658.969 640.901 656.357C640.901 653.745 638.783 651.627 636.171 651.627C633.559 651.627 631.441 653.745 631.441 656.357C631.441 658.969 633.559 661.087 636.171 661.087Z" fill="#6C63FF"/>
<path d="M603.063 750.952C605.675 750.952 607.793 748.834 607.793 746.222C607.793 743.61 605.675 741.492 603.063 741.492C600.451 741.492 598.333 743.61 598.333 746.222C598.333 748.834 600.451 750.952 603.063 750.952Z" fill="#6C63FF"/>
<path d="M619.617 750.952C622.229 750.952 624.347 748.834 624.347 746.222C624.347 743.61 622.229 741.492 619.617 741.492C617.005 741.492 614.887 743.61 614.887 746.222C614.887 748.834 617.005 750.952 619.617 750.952Z" fill="#6C63FF"/>
<path d="M636.171 750.952C638.783 750.952 640.901 748.834 640.901 746.222C640.901 743.61 638.783 741.492 636.171 741.492C633.559 741.492 631.441 743.61 631.441 746.222C631.441 748.834 633.559 750.952 636.171 750.952Z" fill="#6C63FF"/>
<path d="M890 818.744H190V820.321H890V818.744Z" fill="#3F3D56"/>
<path d="M380.67 473.677V620.292C380.67 623.359 379.451 626.301 377.282 628.47C375.113 630.639 372.171 631.858 369.104 631.858H312.128C309.06 631.859 306.117 630.64 303.947 628.471C301.778 626.302 300.558 623.36 300.557 620.292V473.677C300.558 470.609 301.778 467.667 303.947 465.498C306.117 463.329 309.06 462.111 312.128 462.111H319.04C318.7 462.946 318.571 463.851 318.663 464.747C318.756 465.643 319.067 466.503 319.569 467.251C320.072 467.999 320.75 468.612 321.545 469.036C322.34 469.46 323.227 469.682 324.128 469.684H356.612C357.513 469.682 358.4 469.46 359.195 469.036C359.99 468.612 360.668 467.999 361.171 467.251C361.673 466.503 361.984 465.643 362.077 464.747C362.169 463.851 362.04 462.946 361.701 462.111H369.104C372.171 462.112 375.113 463.331 377.282 465.499C379.451 467.668 380.67 470.61 380.67 473.677V473.677Z" fill="#E6E6E6"/>
<path d="M376.875 490.109H304.352V591.01H376.875V490.109Z" fill="white"/>
<path d="M353.889 559.492H324.944V561.146H353.889V559.492Z" fill="#E6E6E6"/>
<path d="M369.703 565.565H324.915V567.219H369.703V565.565Z" fill="#6C63FF"/>
<path d="M360.063 571.287H324.915V572.941H360.063V571.287Z" fill="#E6E6E6"/>
<path d="M345.59 577.009H324.915V578.663H345.59V577.009Z" fill="#E6E6E6"/>
<path d="M355.928 582.731H324.915V584.385H355.928V582.731Z" fill="#E6E6E6"/>
<path d="M315.125 559.016H311.817V562.325H315.125V559.016Z" fill="#E6E6E6"/>
<path d="M315.125 564.738H311.817V568.046H315.125V564.738Z" fill="#6C63FF"/>
<path d="M315.125 570.46H311.817V573.768H315.125V570.46Z" fill="#E6E6E6"/>
<path d="M315.125 576.182H311.817V579.49H315.125V576.182Z" fill="#E6E6E6"/>
<path d="M315.125 581.904H311.817V585.212H315.125V581.904Z" fill="#E6E6E6"/>
<path d="M355.342 502.722H326.177V531.887H355.342V502.722Z" fill="#E6E6E6"/>
<path d="M636.955 260.11H443.128V384.246H636.955V260.11Z" fill="#E6E6E6"/>
<path d="M618.441 294.839H457.74V355.565H618.441V294.839Z" fill="white"/>
<path d="M525.587 305.36H487.019V307.563H525.587V305.36Z" fill="#E6E6E6"/>
<path d="M546.658 313.452H486.98V315.656H546.658V313.452Z" fill="#6C63FF"/>
<path d="M533.813 321.076H486.98V323.28H533.813V321.076Z" fill="#E6E6E6"/>
<path d="M514.529 328.7H486.98V330.904H514.529V328.7Z" fill="#E6E6E6"/>
<path d="M528.303 336.324H486.98V338.528H528.303V336.324Z" fill="#E6E6E6"/>
<path d="M473.936 304.726H469.528V309.134H473.936V304.726Z" fill="#E6E6E6"/>
<path d="M473.936 312.35H469.528V316.758H473.936V312.35Z" fill="#6C63FF"/>
<path d="M473.936 319.974H469.528V324.382H473.936V319.974Z" fill="#E6E6E6"/>
<path d="M473.936 327.598H469.528V332.006H473.936V327.598Z" fill="#E6E6E6"/>
<path d="M473.936 335.222H469.528V339.63H473.936V335.222Z" fill="#E6E6E6"/>
<path d="M610.555 302.447H571.094V341.908H610.555V302.447Z" fill="#E6E6E6"/>
<path d="M636.872 260H443.045V268.234H636.872V260Z" fill="#6C63FF"/>
<path d="M449.164 265.863C450.077 265.863 450.817 265.123 450.817 264.21C450.817 263.297 450.077 262.557 449.164 262.557C448.251 262.557 447.511 263.297 447.511 264.21C447.511 265.123 448.251 265.863 449.164 265.863Z" fill="white"/>
<path d="M454.957 265.863C455.87 265.863 456.61 265.123 456.61 264.21C456.61 263.297 455.87 262.557 454.957 262.557C454.044 262.557 453.304 263.297 453.304 264.21C453.304 265.123 454.044 265.863 454.957 265.863Z" fill="white"/>
<path d="M460.75 265.863C461.663 265.863 462.403 265.123 462.403 264.21C462.403 263.297 461.663 262.557 460.75 262.557C459.837 262.557 459.097 263.297 459.097 264.21C459.097 265.123 459.837 265.863 460.75 265.863Z" fill="white"/>
<path d="M766.749 492.393H719.452V516.83H766.749V492.393Z" fill="#E6E6E6"/>
<path d="M766.749 579.893H719.452V604.33H766.749V579.893Z" fill="#E6E6E6"/>
<path d="M743.101 587.776C764.869 587.776 782.515 570.13 782.515 548.362C782.515 526.594 764.869 508.947 743.101 508.947C721.333 508.947 703.686 526.594 703.686 548.362C703.686 570.13 721.333 587.776 743.101 587.776Z" fill="#E6E6E6"/>
<path d="M743.101 579.105C760.08 579.105 773.844 565.341 773.844 548.362C773.844 531.383 760.08 517.618 743.101 517.618C726.122 517.618 712.357 531.383 712.357 548.362C712.357 565.341 726.122 579.105 743.101 579.105Z" fill="white"/>
<path d="M756.877 539.938H733.033V541.301H756.877V539.938Z" fill="#E2E2E2"/>
<path d="M769.902 544.941H733.009V546.303H769.902V544.941Z" fill="#6C63FF"/>
<path d="M761.962 549.654H733.009V551.017H761.962V549.654Z" fill="#E2E2E2"/>
<path d="M750.04 554.367H733.009V555.73H750.04V554.367Z" fill="#E2E2E2"/>
<path d="M758.556 559.081H733.009V560.443H758.556V559.081Z" fill="#E2E2E2"/>
<path d="M724.945 539.547H722.22V542.271H724.945V539.547Z" fill="#E2E2E2"/>
<path d="M724.945 544.26H722.22V546.985H724.945V544.26Z" fill="#6C63FF"/>
<path d="M724.945 548.973H722.22V551.698H724.945V548.973Z" fill="#E2E2E2"/>
<path d="M724.945 553.686H722.22V556.411H724.945V553.686Z" fill="#E2E2E2"/>
<path d="M724.945 558.399H722.22V561.124H724.945V558.399Z" fill="#E2E2E2"/>
</g>
<defs>
<clipPath id="clip0">
<rect x="190" y="260" width="700" height="560.473" fill="white"/>
</clipPath>
</defs>
</svg>
